<svg xmlns="http://www.w3.org/2000/svg" viewBox="0 0 512 512" role="img" aria-labelledby="title desc">
  <title id="title">文化祭AIコンシェルジュ</title>
  <desc id="desc">校内マップとルートを表すアプリアイコン</desc>
  <rect width="512" height="512" rx="112" fill="#f4f7f8"/>
  <path d="M104 152c0-26.5 21.5-48 48-48h208c26.5 0 48 21.5 48 48v208c0 26.5-21.5 48-48 48H152c-26.5 0-48-21.5-48-48V152Z" fill="#fff" stroke="#17202a" stroke-width="18"/>
  <path d="M176 104v304M336 104v304M104 200h304M104 312h304" stroke="#d9e0e7" stroke-width="18"/>
  <path d="M254 132c-47.5 0-86 38.5-86 86 0 70.5 86 162 86 162s86-91.5 86-162c0-47.5-38.5-86-86-86Z" fill="#ee7565"/>
  <circle cx="254" cy="218" r="34" fill="#fff"/>
  <path d="M214 374h84" stroke="#1d7f62" stroke-width="24" stroke-linecap="round"/>
</svg>
